<svg width="80" height="22" viewBox="0 0 80 22" fill="none" xmlns="http://www.w3.org/2000/svg">
<path d="M4.22642 17.748C2.82507 17.748 1.7666 17.2784 1.05102 16.3392C0.350338 15.3851 0 13.939 0 12.001V5.62777H3.62265V11.5313C3.62265 12.6345 3.78664 13.4619 4.11461 14.0135C4.44259 14.5502 4.94201 14.8186 5.61287 14.8186C6.01539 14.8186 6.35827 14.7217 6.64152 14.5279C6.93968 14.3191 7.18567 14.0359 7.37947 13.6781C7.58818 13.3054 7.73726 12.8805 7.82671 12.4035C7.93107 11.9264 7.98325 11.4046 7.98325 10.8381V5.62777H11.5835V17.4349H8.72119L8.65411 13.7899H8.20687C7.98325 14.7142 7.69999 15.4745 7.35711 16.0708C7.02913 16.6523 6.61171 17.0771 6.10484 17.3455C5.59796 17.6138 4.97183 17.748 4.22642 17.748Z" fill="black"/>
<path d="M13.9045 21.2141V5.62777H16.8563L16.901 8.98208L17.3035 9.0268C17.4377 8.19195 17.6762 7.49873 18.0191 6.94713C18.362 6.39553 18.8018 5.98556 19.3384 5.71722C19.89 5.44887 20.5162 5.3147 21.2169 5.3147C22.2604 5.3147 23.1549 5.56814 23.9003 6.07501C24.6606 6.58189 25.242 7.30492 25.6445 8.24413C26.0471 9.18334 26.2483 10.3089 26.2483 11.6208C26.2483 12.7836 26.0694 13.8272 25.7116 14.7515C25.3687 15.6758 24.8395 16.4063 24.1239 16.943C23.4232 17.4797 22.5288 17.748 21.4405 17.748C20.71 17.748 20.0913 17.6213 19.5844 17.3678C19.0776 17.0995 18.6452 16.7119 18.2874 16.205C17.9445 15.6981 17.6538 15.0646 17.4153 14.3042H16.9904C17.0799 14.7068 17.1619 15.1167 17.2364 15.5342C17.3109 15.9516 17.3706 16.3541 17.4153 16.7417C17.4749 17.1293 17.5048 17.502 17.5048 17.8598V21.2141H13.9045ZM20.1211 14.908C20.6131 14.908 21.0305 14.7738 21.3734 14.5055C21.7312 14.2372 22.007 13.857 22.2008 13.365C22.3946 12.8731 22.4915 12.2991 22.4915 11.6432C22.4915 10.9425 22.3871 10.3462 22.1784 9.8542C21.9846 9.34732 21.7014 8.95972 21.3287 8.69137C20.956 8.40812 20.5236 8.26649 20.0317 8.26649C19.5695 8.26649 19.1745 8.37085 18.8465 8.57956C18.5334 8.77336 18.2725 9.03425 18.0638 9.36223C17.87 9.6753 17.7284 10.0107 17.6389 10.3685C17.5495 10.7263 17.5048 11.0617 17.5048 11.3748V11.8668C17.5048 12.15 17.542 12.4333 17.6166 12.7165C17.6911 12.9998 17.8029 13.2756 17.952 13.5439C18.1011 13.7974 18.28 14.0284 18.4887 14.2372C18.6974 14.4459 18.9359 14.6099 19.2043 14.7291C19.4875 14.8484 19.7931 14.908 20.1211 14.908Z" fill="black"/>
<path d="M32.5642 17.7256C31.1777 17.7256 30.1565 17.3604 29.5006 16.6299C28.8446 15.8845 28.5167 14.6993 28.5167 13.0743V8.44539H26.8395L26.9066 5.65013H28.1141C28.5912 5.63523 28.949 5.56069 29.1875 5.42651C29.441 5.29234 29.5975 5.03891 29.6571 4.6662L29.9478 3.01141H31.9828V5.62777H34.8228V8.5572H31.9828V12.9178C31.9828 13.4247 32.102 13.7974 32.3406 14.0359C32.594 14.2744 32.9742 14.3937 33.481 14.3937C33.7643 14.3937 34.0326 14.3639 34.2861 14.3042C34.5395 14.2446 34.7482 14.1626 34.9122 14.0583V17.3902C34.4351 17.5393 33.9954 17.6287 33.5928 17.6585C33.2052 17.7033 32.8623 17.7256 32.5642 17.7256Z" fill="black"/>
<path d="M36.5949 17.4349V5.62777H40.1952V17.4349H36.5949Z" fill="black"/>
<path d="M47.9802 17.748C46.7875 17.748 45.7291 17.5169 44.8048 17.0548C43.8954 16.5926 43.1798 15.8994 42.658 14.9751C42.1362 14.0508 41.8754 12.8954 41.8754 11.509C41.8754 10.1225 42.1362 8.97462 42.658 8.06523C43.1798 7.14094 43.9028 6.45517 44.8271 6.00793C45.7514 5.54578 46.8099 5.3147 48.0025 5.3147C49.1952 5.3147 50.2537 5.54578 51.178 6.00793C52.1023 6.47008 52.8253 7.1633 53.3471 8.0876C53.8689 8.99699 54.1297 10.1449 54.1297 11.5313C54.1297 12.9476 53.8614 14.1179 53.3247 15.0422C52.788 15.9665 52.0501 16.6523 51.1109 17.0995C50.1866 17.5318 49.143 17.748 47.9802 17.748ZM48.092 15.1316C48.6287 15.1316 49.0759 15.0124 49.4337 14.7738C49.7915 14.5204 50.0599 14.1403 50.2388 13.6334C50.4176 13.1265 50.5071 12.5004 50.5071 11.755C50.5071 10.9648 50.4102 10.3014 50.2164 9.76475C50.0226 9.21315 49.7319 8.79573 49.3443 8.51247C48.9716 8.21431 48.4871 8.06523 47.8907 8.06523C47.3839 8.06523 46.9441 8.19195 46.5714 8.44539C46.2136 8.68392 45.9452 9.05662 45.7663 9.56349C45.5874 10.0704 45.498 10.704 45.498 11.4643C45.498 12.6867 45.7216 13.6036 46.1689 14.2148C46.631 14.826 47.2721 15.1316 48.092 15.1316Z" fill="black"/>
<path d="M55.7913 17.4349V5.62777H58.6984L58.7431 9.09389H59.1904C59.3842 8.25904 59.66 7.55836 60.0178 6.99186C60.3756 6.42535 60.8303 6.00793 61.3819 5.73958C61.9335 5.45633 62.5819 5.3147 63.3273 5.3147C64.7138 5.3147 65.7648 5.79921 66.4804 6.76824C67.2109 7.73726 67.5761 9.28024 67.5761 11.3972V17.4349H63.9535V11.7997C63.9535 10.5772 63.7746 9.69021 63.4168 9.13861C63.0739 8.57211 62.5596 8.28885 61.8738 8.28885C61.3073 8.28885 60.8377 8.4603 60.465 8.80318C60.1072 9.14607 59.8389 9.60076 59.66 10.1673C59.4811 10.7338 59.3916 11.3674 59.3916 12.068V17.4349H55.7913Z" fill="black"/>
<path d="M74.5437 17.748C73.7535 17.748 73.0379 17.6735 72.3969 17.5244C71.7559 17.3902 71.1968 17.1889 70.7198 16.9206C70.2427 16.6523 69.8476 16.3317 69.5346 15.959C69.2364 15.5714 69.0277 15.1465 68.9084 14.6844L71.5919 13.4992C71.6962 13.7526 71.8751 14.0135 72.1286 14.2819C72.3969 14.5353 72.7472 14.744 73.1796 14.908C73.6268 15.072 74.1635 15.154 74.7896 15.154C75.386 15.154 75.8481 15.072 76.1761 14.908C76.519 14.7291 76.6904 14.4757 76.6904 14.1477C76.6904 13.9092 76.5935 13.7228 76.3997 13.5887C76.2208 13.4396 75.945 13.3129 75.5723 13.2085C75.1996 13.0892 74.7375 12.9774 74.1859 12.8731C73.6194 12.7538 73.0454 12.6196 72.464 12.4706C71.8826 12.3066 71.3384 12.0904 70.8316 11.8221C70.3247 11.5388 69.9147 11.1736 69.6016 10.7263C69.3035 10.2642 69.1544 9.68275 69.1544 8.98208C69.1544 8.25158 69.3482 7.61799 69.7358 7.0813C70.1234 6.52971 70.6974 6.09737 71.4577 5.78431C72.2329 5.47124 73.1721 5.3147 74.2753 5.3147C75.2592 5.3147 76.1239 5.44142 76.8693 5.69486C77.6147 5.94829 78.2334 6.31354 78.7254 6.7906C79.2322 7.25275 79.5826 7.8118 79.7764 8.46775L76.8917 9.4964C76.8171 9.16843 76.6606 8.88517 76.4221 8.64665C76.1984 8.40812 75.9077 8.22922 75.55 8.10996C75.2071 7.97578 74.7971 7.9087 74.32 7.9087C73.7386 7.9087 73.2839 7.99815 72.956 8.17704C72.6429 8.35594 72.4864 8.59447 72.4864 8.89263C72.4864 9.13116 72.5907 9.33242 72.7994 9.4964C73.023 9.64548 73.3361 9.7722 73.7386 9.87656C74.1411 9.98091 74.6182 10.0927 75.1698 10.212C75.7512 10.3313 76.3252 10.4729 76.8917 10.6369C77.4731 10.7859 77.9949 10.9947 78.457 11.263C78.9341 11.5164 79.3068 11.8593 79.5751 12.2917C79.8584 12.7091 80 13.2532 80 13.9241C80 14.7142 79.7913 15.4 79.3739 15.9814C78.9564 16.5479 78.3378 16.9877 77.5178 17.3008C76.7128 17.5989 75.7214 17.748 74.5437 17.748Z" fill="black"/>
<circle cx="38.4348" cy="2.09644" r="2.09644" fill="#FF4F00"/>
</svg>
