<svg width="80" height="22" viewBox="0 0 80 22" fill="none" xmlns="http://www.w3.org/2000/svg">
<path d="M4.22642 17.7476C2.82507 17.7476 1.7666 17.278 1.05102 16.3388C0.350338 15.3847 0 13.9386 0 12.0006V5.62735H3.62265V11.531C3.62265 12.6341 3.78664 13.4615 4.11461 14.0131C4.44259 14.5498 4.94201 14.8182 5.61287 14.8182C6.01539 14.8182 6.35827 14.7213 6.64152 14.5275C6.93968 14.3188 7.18567 14.0355 7.37947 13.6777C7.58818 13.305 7.73726 12.8801 7.82671 12.4031C7.93107 11.926 7.98325 11.4042 7.98325 10.8377V5.62735H11.5835V17.4345H8.72119L8.65411 13.7895H8.20687C7.98325 14.7138 7.69999 15.4741 7.35711 16.0704C7.02913 16.6519 6.61171 17.0767 6.10484 17.3451C5.59796 17.6134 4.97183 17.7476 4.22642 17.7476Z" fill="white"/>
<path d="M13.9033 21.2125V5.62735H16.8549L16.8996 8.9814L17.302 9.02612C17.4362 8.19133 17.6747 7.49817 18.0176 6.94661C18.3604 6.39506 18.8002 5.98512 19.3368 5.71679C19.8883 5.44847 20.5145 5.3143 21.2151 5.3143C22.2585 5.3143 23.1529 5.56772 23.8983 6.07455C24.6585 6.58139 25.2399 7.30438 25.6423 8.24351C26.0449 9.18265 26.2461 10.3081 26.2461 11.6199C26.2461 12.7826 26.0672 13.8262 25.7094 14.7504C25.3665 15.6746 24.8374 16.4051 24.1219 16.9417C23.4212 17.4784 22.5269 17.7467 21.4387 17.7467C20.7082 17.7467 20.0896 17.62 19.5827 17.3665C19.076 17.0982 18.6436 16.7106 18.2858 16.2038C17.943 15.6969 17.6523 15.0635 17.4138 14.3031H16.989C17.0785 14.7057 17.1604 15.1156 17.2349 15.533C17.3094 15.9504 17.3691 16.3529 17.4138 16.7404C17.4734 17.128 17.5033 17.5007 17.5033 17.8585V21.2125H13.9033ZM20.1194 14.9069C20.6113 14.9069 21.0287 14.7727 21.3716 14.5044C21.7294 14.2361 22.0051 13.856 22.1989 13.364C22.3927 12.8721 22.4896 12.2982 22.4896 11.6423C22.4896 10.9417 22.3852 10.3454 22.1765 9.85346C21.9827 9.34663 21.6996 8.95905 21.3269 8.69072C20.9542 8.40749 20.5219 8.26587 20.03 8.26587C19.5678 8.26587 19.1729 8.37022 18.8449 8.57891C18.5318 8.77271 18.2709 9.03358 18.0623 9.36153C17.8685 9.67457 17.7269 10.0099 17.6374 10.3677C17.548 10.7255 17.5033 11.0609 17.5033 11.3739V11.8659C17.5033 12.1491 17.5405 12.4324 17.6151 12.7155C17.6896 12.9988 17.8014 13.2746 17.9505 13.5429C18.0996 13.7964 18.2784 14.0273 18.4871 14.2361C18.6958 14.4448 18.9343 14.6088 19.2027 14.728C19.4858 14.8473 19.7914 14.9069 20.1194 14.9069Z" fill="white"/>
<path d="M32.5616 17.7243C31.1752 17.7243 30.1541 17.3591 29.4983 16.6287C28.8423 15.8833 28.5145 14.6982 28.5145 13.0733V8.44476H26.8374L26.9045 5.64972H28.1119C28.589 5.63481 28.9467 5.56028 29.1852 5.42612C29.4387 5.29195 29.5952 5.03854 29.6548 4.66587L29.9454 3.0112H31.9803V5.62735H34.82V8.55656H31.9803V12.9168C31.9803 13.4237 32.0995 13.7964 32.338 14.0348C32.5914 14.2733 32.9716 14.3926 33.4783 14.3926C33.7616 14.3926 34.0299 14.3628 34.2834 14.3031C34.5367 14.2435 34.7454 14.1615 34.9094 14.0572V17.3889C34.4324 17.538 33.9927 17.6274 33.5901 17.6572C33.2026 17.702 32.8597 17.7243 32.5616 17.7243Z" fill="white"/>
<path d="M36.5918 17.4345V5.62735H40.1921V17.4345H36.5918Z" fill="white"/>
<path d="M47.9764 17.7467C46.7838 17.7467 45.7254 17.5156 44.8012 17.0535C43.8919 16.5914 43.1764 15.8982 42.6546 14.974C42.1328 14.0497 41.8721 12.8944 41.8721 11.5081C41.8721 10.1217 42.1328 8.97394 42.6546 8.06462C43.1764 7.1404 43.8993 6.45468 44.8235 6.00748C45.7477 5.54536 46.8061 5.3143 47.9986 5.3143C49.1912 5.3143 50.2497 5.54536 51.1739 6.00748C52.0981 6.46959 52.821 7.16276 53.3428 8.08699C53.8645 8.99631 54.1253 10.1441 54.1253 11.5305C54.1253 12.9466 53.857 14.1168 53.3204 15.0411C52.7837 15.9653 52.0459 16.651 51.1068 17.0982C50.1826 17.5305 49.1391 17.7467 47.9764 17.7467ZM48.0881 15.1305C48.6248 15.1305 49.072 15.0113 49.4297 14.7727C49.7875 14.5193 50.0559 14.1392 50.2348 13.6324C50.4135 13.1255 50.503 12.4995 50.503 11.7541C50.503 10.964 50.4061 10.3006 50.2124 9.76401C50.0186 9.21246 49.7279 8.79507 49.3403 8.51184C48.9677 8.2137 48.4832 8.06462 47.8869 8.06462C47.3801 8.06462 46.9403 8.19133 46.5677 8.44475C46.2099 8.68327 45.9415 9.05594 45.7626 9.56277C45.5838 10.0696 45.4944 10.7032 45.4944 11.4634C45.4944 12.6857 45.7179 13.6026 46.1652 14.2137C46.6273 14.8249 47.2683 15.1305 48.0881 15.1305Z" fill="white"/>
<path d="M55.7866 17.4336V5.62735H58.6935L58.7382 9.09321H59.1854C59.3792 8.25842 59.655 7.55779 60.0128 6.99133C60.3705 6.42487 60.8252 6.00748 61.3767 5.73915C61.9283 5.45592 62.5766 5.3143 63.322 5.3143C64.7084 5.3143 65.7593 5.79878 66.4748 6.76773C67.2052 7.73668 67.5704 9.27954 67.5704 11.3963V17.4336H63.9481V11.7988C63.9481 10.5764 63.7692 9.68948 63.4115 9.13792C63.0686 8.57146 62.5543 8.28824 61.8686 8.28824C61.3021 8.28824 60.8326 8.45966 60.4599 8.80252C60.1022 9.14538 59.8339 9.60004 59.655 10.1665C59.4761 10.733 59.3866 11.3665 59.3866 12.0671V17.4336H55.7866Z" fill="white"/>
<path d="M74.5376 17.7476C73.7474 17.7476 73.0318 17.6731 72.3908 17.524C71.7498 17.3898 71.1907 17.1885 70.7137 16.9202C70.2366 16.6519 69.8415 16.3313 69.5285 15.9586C69.2303 15.571 69.0216 15.1461 68.9023 14.684L71.5858 13.4988C71.6901 13.7522 71.869 14.0131 72.1225 14.2815C72.3908 14.5349 72.7411 14.7436 73.1735 14.9076C73.6207 15.0716 74.1574 15.1536 74.7835 15.1536C75.3799 15.1536 75.842 15.0716 76.17 14.9076C76.5129 14.7287 76.6843 14.4753 76.6843 14.1473C76.6843 13.9088 76.5874 13.7224 76.3936 13.5883C76.2147 13.4392 75.9389 13.3125 75.5662 13.2081C75.1935 13.0888 74.7314 12.977 74.1798 12.8727C73.6133 12.7534 73.0393 12.6192 72.4579 12.4702C71.8765 12.3062 71.3323 12.09 70.8255 11.8217C70.3186 11.5384 69.9086 11.1732 69.5955 10.7259C69.2974 10.2638 69.1483 9.68236 69.1483 8.98168C69.1483 8.25119 69.3421 7.61759 69.7297 7.08091C70.1173 6.52931 70.6913 6.09698 71.4516 5.78391C72.2268 5.47084 73.166 5.3143 74.2692 5.3143C75.2531 5.3143 76.1178 5.44102 76.8632 5.69446C77.6086 5.9479 78.2273 6.31314 78.7193 6.7902C79.2261 7.25235 79.5765 7.8114 79.7703 8.46735L76.8856 9.49601C76.811 9.16803 76.6545 8.88478 76.416 8.64625C76.1923 8.40772 75.9016 8.22882 75.5439 8.10956C75.201 7.97539 74.791 7.9083 74.3139 7.9083C73.7325 7.9083 73.2778 7.99775 72.9499 8.17665C72.6368 8.35554 72.4803 8.59407 72.4803 8.89223C72.4803 9.13076 72.5846 9.33202 72.7933 9.49601C73.0169 9.64509 73.33 9.7718 73.7325 9.87616C74.135 9.98052 74.6121 10.0923 75.1637 10.2116C75.7451 10.3309 76.3191 10.4725 76.8856 10.6365C77.467 10.7855 77.9888 10.9943 78.4509 11.2626C78.928 11.516 79.3007 11.8589 79.569 12.2913C79.8523 12.7087 79.9939 13.2528 79.9939 13.9237C79.9939 14.7138 79.7852 15.3996 79.3678 15.981C78.9503 16.5475 78.3317 16.9873 77.5117 17.3004C76.7067 17.5985 75.7153 17.7476 74.5376 17.7476Z" fill="white"/>
<path d="M38.4314 4.19288C39.5892 4.19288 40.5278 3.25427 40.5278 2.09644C40.5278 0.938608 39.5892 0 38.4314 0C37.2736 0 36.335 0.938608 36.335 2.09644C36.335 3.25427 37.2736 4.19288 38.4314 4.19288Z" fill="#FF4F00"/>
</svg>
